<?xml version="1.0" encoding="iso-8859-1"?>
<!-- Generator: Adobe Illustrator 19.0.0, SVG Export Plug-In . SVG Version: 6.00 Build 0)  -->
<svg version="1.1" id="Layer_1" xmlns="http://www.w3.org/2000/svg" xmlns:xlink="http://www.w3.org/1999/xlink" x="0px" y="0px"
	 viewBox="0 0 496 496" style="enable-background:new 0 0 496 496;" xml:space="preserve">
<path style="fill:#3E3F3F;" d="M276.1,176.8c-0.8,0-1.6,0-2.4,0c-8.8-1.6-14.4-9.6-12.8-18.4l12.8-72C272.1,56,248.1,32,217.7,32
	s-55.2,24.8-55.2,55.2c0,0.8,0,1.6,0,2.4l-12.8,73.6c-1.6,8.8-9.6,14.4-18.4,12.8c-8.8-1.6-14.4-9.6-12.8-18.4l12.8-72.8
	c0-46.4,39.2-84.8,86.4-84.8c48,0,87.2,39.2,87.2,87.2c0,0.8,0,1.6,0,2.4l-12.8,73.6C290.5,171.2,284.1,176.8,276.1,176.8z"/>
<path style="fill:#1D1E1E;" d="M273.7,176.8c0.8,0,1.6,0,2.4,0c8,0,14.4-5.6,16-12.8l11.2-64.8c-8-39.2-43.2-69.6-85.6-69.6
	c-47.2,0-86.4,38.4-87.2,85.6l-9.6,55.2c2.4,3.2,5.6,5.6,9.6,6.4c8.8,1.6,16.8-4,18.4-12.8l12.8-73.6c0-0.8,0-1.6,0-2.4
	c0-30.4,24.8-55.2,55.2-55.2s54.4,24,55.2,53.6l-2.4,14.4c1.6,4.8,2.4,9.6,2.4,15.2l-9.6,55.2C265.7,173.6,268.9,176,273.7,176.8z"
	/>
<path style="fill:#3C797C;" d="M471.3,471.2l-44-322.4c-1.6-9.6-9.6-16.8-20-16.8H88.9c-9.6,0-18.4,7.2-20,16.8L24.1,473.6
	c-0.8,5.6,0.8,11.2,4.8,16c4,4,9.6,6.4,15.2,6.4h408l0,0c11.2,0,20-8.8,20-20C472.1,474.4,472.1,472.8,471.3,471.2z"/>
<g>
	<polygon style="fill:#3C7177;" points="436.9,217.6 366.5,147.2 344.9,169.6 416.9,370.4 	"/>
	<polygon style="fill:#3C7177;" points="357.7,281.6 336.1,445.6 201.7,169.6 223.3,147.2 	"/>
	<path style="fill:#3C7177;" d="M147.3,496h304.8l0,0c11.2,0,20-8.8,20-20c0-1.6,0-3.2-0.8-4.8l-44-322.4c-1.6-9.6-9.6-16.8-20-16.8
		"/>
</g>
<path style="fill:#619E9C;" d="M155.3,476c0-1.6,0-3.2-0.8-4.8l-44-322.4c-1.6-9.6-9.6-16.8-20-16.8h-1.6c-9.6,0-18.4,7.2-20,16.8
	L24.1,473.6c-0.8,5.6,0.8,11.2,4.8,16c4,4,9.6,6.4,15.2,6.4h91.2l0,0C146.5,496,155.3,487.2,155.3,476z"/>
<path style="fill:#4D8989;" d="M28.9,489.6c4,4,9.6,6.4,15.2,6.4h91.2l0,0c11.2,0,20-8.8,20-20c0-1.6,0-3.2-0.8-4.8l-44-322.4
	c-1.6-9.6-9.6-16.8-20-16.8h-1.6"/>
<path style="fill:#9BB1BA;" d="M356.1,176.8c-7.2,0-14.4-5.6-16-12.8l-12-74.4c0-0.8,0-1.6,0-2.4c0-30.4-24.8-55.2-55.2-55.2
	c-30.4,0-54.4,24-55.2,53.6l12.8,72c1.6,8.8-4,16.8-12.8,18.4c-8.8,1.6-16.8-4-18.4-12.8l-12.8-73.6c0-0.8,0-1.6,0-2.4
	c0-48,39.2-87.2,87.2-87.2c46.4,0,84.8,38.4,85.6,85.6l12.8,72.8c1.6,8.8-4,16.8-12.8,18.4C358.5,176.8,357.7,176.8,356.1,176.8z"/>
<path style="fill:#8A98A0;" d="M360.1,87.2c-12.8-32.8-44-56-81.6-56c-48,0-87.2,39.2-87.2,87.2c0,0.8,0,1.6,0,2.4l8,47.2
	c3.2,6.4,9.6,10.4,16.8,8.8c8.8-1.6,14.4-9.6,12.8-18.4l-12.8-72C217.7,56,242.5,32,272.9,32s55.2,24.8,55.2,55.2c0,0.8,0,1.6,0,2.4
	l0.8,5.6c3.2,7.2,4.8,14.4,4.8,22.4c0,0.8,0,1.6,0,2.4l8,47.2c2.4,5.6,8,8.8,14.4,8.8c0.8,0,1.6,0,2.4,0c8.8-1.6,14.4-9.6,12.8-18.4
	L360.1,87.2z"/>
<circle style="fill:#176EA3;" cx="131.3" cy="388.8" r="107.2"/>
<path style="fill:#18456D;" d="M131.3,281.6c59.2,0,107.2,48,107.2,107.2S190.5,496,131.3,496"/>
<path style="fill:#1B5A89;" d="M55.3,312.8c41.6-41.6,109.6-41.6,152,0c41.6,41.6,41.6,109.6,0,152"/>
<g>
	<path style="fill:#EEFFFF;" d="M130.5,440c-8.8,0-15.2-7.2-15.2-15.2v-72c0-8.8,7.2-15.2,15.2-15.2c8.8,0,15.2,7.2,15.2,15.2v72
		C145.7,433.6,138.5,440,130.5,440z"/>
	<path style="fill:#EEFFFF;" d="M166.5,404h-72c-8.8,0-15.2-7.2-15.2-15.2c0-8.8,7.2-15.2,15.2-15.2h72c8.8,0,15.2,7.2,15.2,15.2
		C181.7,397.6,174.5,404,166.5,404z"/>
</g>
<g>
</g>
<g>
</g>
<g>
</g>
<g>
</g>
<g>
</g>
<g>
</g>
<g>
</g>
<g>
</g>
<g>
</g>
<g>
</g>
<g>
</g>
<g>
</g>
<g>
</g>
<g>
</g>
<g>
</g>
</svg>
