<?xml version="1.0" encoding="iso-8859-1"?>
<!-- Generator: Adobe Illustrator 18.0.0, SVG Export Plug-In . SVG Version: 6.00 Build 0)  -->
<!DOCTYPE svg PUBLIC "-//W3C//DTD SVG 1.1//EN" "http://www.w3.org/Graphics/SVG/1.1/DTD/svg11.dtd">
<svg version="1.1" id="Capa_1" xmlns="http://www.w3.org/2000/svg" xmlns:xlink="http://www.w3.org/1999/xlink" x="0px" y="0px"
	 viewBox="0 0 459.071 459.071" style="enable-background:new 0 0 459.071 459.071;" xml:space="preserve">
<g id="XMLID_241_">
	<circle id="XMLID_945_" cx="116.303" cy="40.586" r="37.232"/>
	<path id="XMLID_973_" d="M457.64,228.783c-1.461-2.064-3.833-3.292-6.362-3.292h-178.44c-2.529,0-4.901,1.228-6.362,3.292
		c-1.461,2.065-1.829,4.71-0.987,7.095l32.323,91.583c1.1,3.116,4.045,5.2,7.349,5.2h113.793c3.304,0,6.249-2.083,7.349-5.2
		l32.323-91.583C459.469,233.493,459.101,230.848,457.64,228.783z"/>
	<path id="XMLID_974_" d="M382.577,347.794h-95.606l-35.47-100.498c-1.411-3.998-5.19-6.672-9.43-6.672h-11.779
		c-11.553-31.421-32.235-87.925-41.329-114.387c-8.334-24.253-22.31-36.551-41.538-36.551H85.181
		c-19.228,0-33.203,12.298-41.538,36.551C30.726,163.826,1.392,244.081,1.097,244.887c-3.407,9.318,1.385,19.634,10.704,23.041
		c2.036,0.745,4.119,1.098,6.167,1.098c7.328-0.001,14.211-4.519,16.874-11.801c0.25-0.684,21.314-58.314,35.702-99.045
		c-0.959,7.836,2.086-8.736-25.516,133.777c-0.567,2.925,0.204,5.949,2.099,8.249c1.895,2.299,4.719,3.641,7.699,3.641
		c3.869,0,8.512,0,13.709,0V434.16c0,11.906,9.652,21.558,21.558,21.558s21.558-9.651,21.558-21.558V303.847
		c3.099,0,6.209,0,9.308,0V434.16c0,11.906,9.652,21.558,21.558,21.558s21.558-9.651,21.558-21.558V303.847c5.198,0,9.84,0,13.708,0
		c2.981,0,5.806-1.333,7.702-3.634s2.662-5.329,2.096-8.255c-27.603-142.514-24.553-125.901-25.536-133.939
		c11.089,31.158,27.38,75.583,36.293,99.804c3.534,9.603,14.17,14.532,23.779,11.019c4.051-1.481,7.378-4.422,9.382-8.217h3.499
		l35.47,100.498c1.411,3.998,5.19,6.672,9.43,6.672h102.682c6.693,0,12.139,5.445,12.139,12.139s-5.446,12.14-12.139,12.14h-77.656
		c-5.523,0-10,4.478-10,10s4.477,10,10,10h77.656c17.722,0,32.139-14.418,32.139-32.14S400.299,347.794,382.577,347.794z"/>
	<circle id="XMLID_975_" cx="300.477" cy="439.103" r="16.615"/>
	<circle id="XMLID_976_" cx="394.123" cy="439.103" r="16.615"/>
</g>
<g>
</g>
<g>
</g>
<g>
</g>
<g>
</g>
<g>
</g>
<g>
</g>
<g>
</g>
<g>
</g>
<g>
</g>
<g>
</g>
<g>
</g>
<g>
</g>
<g>
</g>
<g>
</g>
<g>
</g>
</svg>
